<svg xmlns="http://www.w3.org/2000/svg" viewBox="0 0 1637 349" role="img" aria-labelledby="title desc">
  <title id="title">Droneza</title>
  <desc id="desc">Droneza bracketed D2 monogram and wordmark</desc>
  <path d="M 1.667 1.667 C 1.300 2.033, 1 80.108, 1 175.167 L 1 348 49 348 L 97 348 97 337 L 97 326 60.997 326 L 24.994 326 25.247 174.750 L 25.500 23.500 61.250 23.237 L 97 22.975 97 11.987 L 97 1 49.667 1 C 23.633 1, 2.033 1.300, 1.667 1.667 M 177 12 L 177 23 212 23 L 247 23 247 88 L 247 153 258.500 153 L 270 153 270 77 L 270 1 223.500 1 L 177 1 177 12 M 815.500 80.426 C 798.030 84.944, 783.953 93.054, 772.314 105.307 C 763.637 114.441, 759.856 119.896, 754.970 130.327 C 742.316 157.343, 742.335 188.607, 755.022 216.687 C 765.310 239.458, 786.635 257.535, 812 264.987 C 817.437 266.584, 823.276 267.337, 833.231 267.723 C 845.077 268.182, 848.272 267.953, 856.492 266.053 C 869.169 263.124, 876.845 259.910, 886.586 253.452 C 905.106 241.174, 918.403 221.894, 924.749 198.119 C 926.984 189.745, 927.322 186.429, 927.359 172.500 C 927.398 158.163, 927.124 155.486, 924.722 146.740 C 913.169 104.667, 878.562 77.873, 836 78.050 C 827.326 78.087, 822.288 78.670, 815.500 80.426 M 1548.310 81.250 C 1547.795 81.938, 1544.531 89.925, 1541.056 99 C 1537.580 108.075, 1530.554 126.075, 1525.441 139 C 1520.329 151.925, 1513.827 168.575, 1510.992 176 C 1499.452 206.227, 1486.474 237.962, 1482.607 245.408 C 1478.193 253.908, 1473.772 258.283, 1467.373 260.483 C 1465.243 261.215, 1463.612 262.193, 1463.750 262.657 C 1464.116 263.891, 1511.979 263.736, 1512.088 262.500 C 1512.136 261.950, 1510.293 261.179, 1507.991 260.786 C 1502.151 259.789, 1497.815 257.033, 1495.685 252.966 C 1492.765 247.391, 1493.993 239.990, 1501.240 219.491 L 1507.601 201.500 1539.173 201.236 L 1570.746 200.972 1571.826 203.736 C 1572.420 205.256, 1574.532 211, 1576.518 216.500 C 1578.505 222, 1581.166 229.200, 1582.432 232.500 C 1588.318 247.845, 1587.823 254.560, 1580.500 258.704 C 1578.300 259.949, 1574.813 260.975, 1572.750 260.984 C 1570.091 260.995, 1569 261.436, 1569 262.500 C 1569 263.804, 1573.398 264, 1602.583 264 C 1626.316 264, 1636.060 263.681, 1635.804 262.913 C 1635.605 262.315, 1633.033 260.978, 1630.087 259.941 C 1622.659 257.325, 1620.499 255.708, 1617.425 250.462 C 1614.172 244.911, 1589.491 181.577, 1563.184 111.275 C 1556.758 94.101, 1550.993 80.039, 1550.372 80.025 C 1549.752 80.011, 1548.824 80.563, 1548.310 81.250 M 418.750 83.761 C 396.887 83.905, 379 84.394, 379 84.848 C 379 85.301, 381.762 86.440, 385.139 87.379 C 391.791 89.228, 396.189 92.902, 397.527 97.726 C 398.793 102.293, 399.275 234.364, 398.059 243.430 C 396.555 254.635, 393.773 258.097, 384.353 260.489 C 381.906 261.111, 380.038 262.042, 380.202 262.559 C 380.382 263.130, 399.209 263.498, 428 263.495 C 470.463 263.490, 476.328 263.295, 483.311 261.663 C 504.012 256.823, 522.479 244.982, 533.586 229.428 C 539.347 221.360, 545.429 208.348, 548.043 198.500 C 551.071 187.087, 551.794 166.441, 549.575 154.688 C 545.256 131.802, 535.554 114.807, 519.748 102.440 C 511.331 95.854, 505.909 92.957, 494.677 89.043 C 480.175 83.989, 471.877 83.412, 418.750 83.761 M 822.986 84.402 C 798.963 91.161, 783.108 110.739, 775.935 142.500 C 774.011 151.019, 773.676 155.388, 773.672 172 C 773.665 194.132, 775.158 203.561, 781.216 219.676 C 785.831 231.950, 790.189 239.004, 798.062 246.940 C 820.645 269.705, 854.817 269.247, 876.442 245.889 C 886.704 234.805, 893.557 220.323, 897.684 201 C 899.124 194.262, 899.490 188.147, 899.450 171.500 C 899.405 153.016, 899.122 149.374, 897.081 141.100 C 892.398 122.111, 884.898 107.908, 874.286 97.930 C 863.102 87.414, 852.570 83.307, 836.500 83.195 C 831.550 83.161, 825.469 83.704, 822.986 84.402 M 1320.005 85.500 C 1319.590 86.600, 1318.723 92.675, 1318.078 99 C 1315.884 120.525, 1315.658 125, 1316.768 125 C 1317.349 125, 1319.777 121.102, 1322.162 116.338 C 1329.640 101.405, 1338.281 93.924, 1352.087 90.430 C 1360.887 88.202, 1421 87.021, 1421 89.076 C 1421 89.800, 1417.673 95.592, 1413.607 101.946 C 1409.541 108.301, 1403.354 118.078, 1399.857 123.673 C 1384.135 148.833, 1345.704 209.189, 1327.133 237.886 C 1318.810 250.748, 1312 261.885, 1312 262.636 C 1312 263.775, 1323.302 264, 1380.481 264 L 1448.962 264 1449.465 261.750 C 1450.270 258.147, 1455 224.165, 1455 221.983 C 1455 218.002, 1453.100 220.202, 1448.665 229.318 C 1441.185 244.695, 1432.960 252.206, 1419.123 256.297 C 1413.277 258.026, 1408.425 258.312, 1377.750 258.741 C 1358.638 259.008, 1343 258.988, 1343 258.698 C 1343 258.407, 1347.644 250.819, 1353.321 241.835 C 1358.998 232.851, 1368.296 218.075, 1373.984 209 C 1379.672 199.925, 1385.760 190.250, 1387.515 187.500 C 1389.269 184.750, 1398.257 170.575, 1407.490 156 C 1427.813 123.914, 1433.066 115.699, 1443.750 99.289 C 1448.287 92.319, 1452 85.916, 1452 85.058 C 1452 83.663, 1445.137 83.500, 1386.380 83.500 C 1321.679 83.500, 1320.750 83.528, 1320.005 85.500 M 572 84.777 C 572 85.269, 574.618 86.400, 577.817 87.289 C 581.183 88.225, 584.771 90.044, 586.333 91.606 C 592.065 97.337, 592.102 97.925, 591.787 177.135 L 591.500 249.500 589.212 253.179 C 586.998 256.740, 580.219 261, 576.766 261 C 575.885 261, 574.454 261.272, 573.588 261.605 C 568.814 263.437, 576.218 264, 605.059 264 C 631.418 264, 637 263.761, 637 262.632 C 637 261.800, 635.487 261.060, 633.142 260.746 C 626.177 259.812, 621.933 257.087, 619.634 252.072 C 617.637 247.718, 617.537 245.878, 617.519 213.500 L 617.500 179.500 629 179.267 C 641.468 179.014, 645.578 179.848, 648.777 183.279 C 649.915 184.501, 659.905 200.575, 670.975 219 C 682.045 237.425, 692.753 254.195, 694.771 256.267 C 696.788 258.339, 700.478 261.039, 702.970 262.267 C 706.954 264.231, 709.067 264.500, 720.500 264.500 C 733.394 264.500, 743.001 263.513, 742.999 262.189 C 742.998 261.810, 740.264 260.697, 736.923 259.715 C 729.188 257.442, 724.147 254.245, 719.729 248.812 C 716.269 244.555, 703.984 226.332, 698.865 217.861 C 688.896 201.364, 677.215 183.869, 673.857 180.405 L 669.887 176.309 675.694 174.526 C 684.702 171.759, 696.329 165.344, 701.741 160.155 C 711.541 150.759, 715.570 140.214, 714.718 126.188 C 713.549 106.933, 700.622 93.097, 677.500 86.353 C 672.226 84.815, 665.478 84.559, 621.750 84.242 C 592.856 84.033, 572 84.257, 572 84.777 M 943 84.841 C 943 85.303, 945.471 86.235, 948.492 86.911 C 955.619 88.506, 962.802 93.420, 965.430 98.500 C 967.464 102.431, 967.500 103.685, 967.499 171 L 967.497 239.500 964.999 246.475 C 962.974 252.128, 961.695 254.059, 958.253 256.663 C 955.675 258.614, 952.237 260.142, 949.503 260.552 C 946.656 260.979, 945 261.737, 945 262.614 C 945 263.761, 949.576 264, 971.500 264 C 994.389 264, 998 263.796, 998 262.500 C 998 261.514, 997.014 261, 995.122 261 C 988.346 261, 981.115 255.814, 978.031 248.743 C 974.268 240.116, 973.885 231.940, 974.198 167.068 L 974.500 104.636 998.454 135.068 C 1011.629 151.806, 1035.722 182.600, 1051.995 203.500 C 1096.956 261.248, 1100.728 265.863, 1102.731 265.569 C 1104.401 265.325, 1104.530 260.850, 1105.043 185.905 C 1105.541 112.923, 1105.731 106.059, 1107.390 101.053 C 1109.739 93.961, 1114.078 89.708, 1121.279 87.438 C 1124.426 86.446, 1127 85.267, 1127 84.817 C 1127 84.368, 1115.300 84, 1101 84 C 1086.700 84, 1075 84.365, 1075 84.811 C 1075 85.257, 1077.234 86.195, 1079.965 86.894 C 1090.217 89.522, 1095.882 96.060, 1097.869 107.554 C 1098.925 113.667, 1099.944 221.389, 1098.955 222.378 C 1098.394 222.939, 1092.571 215.558, 1029 133.698 L 990.500 84.121 966.750 84.061 C 953.688 84.027, 943 84.378, 943 84.841 M 1144 84.955 C 1144 85.480, 1145.688 86.225, 1147.750 86.612 C 1157.256 88.392, 1162.350 92.912, 1163.689 100.755 C 1164.135 103.365, 1164.500 137, 1164.500 175.500 C 1164.500 228.164, 1164.194 246.502, 1163.266 249.548 C 1161.288 256.034, 1154.387 261, 1147.351 261 C 1145.928 261, 1145 261.592, 1145 262.500 C 1145 263.819, 1153.387 264, 1214.481 264 L 1283.962 264 1284.486 261.750 C 1284.774 260.512, 1285.904 253.200, 1286.997 245.500 C 1288.089 237.800, 1289.372 229.124, 1289.847 226.220 C 1290.421 222.714, 1290.359 220.722, 1289.664 220.293 C 1289.089 219.937, 1288.412 220.263, 1288.161 221.017 C 1287.910 221.771, 1285.743 226.304, 1283.347 231.091 C 1277.939 241.894, 1271.924 248.696, 1264.082 252.875 C 1254.644 257.906, 1247.474 258.963, 1222.651 258.983 C 1204.276 258.997, 1200.242 258.734, 1197.278 257.328 C 1191.134 254.412, 1191 253.434, 1191 211.532 L 1191 174 1210.250 174.012 C 1231.313 174.025, 1237.380 175, 1244.114 179.457 C 1249.584 183.077, 1253.478 188.891, 1255.544 196.526 C 1256.517 200.121, 1257.742 202.919, 1258.265 202.745 C 1259.178 202.441, 1259.394 140.061, 1258.486 139.153 C 1258.060 138.727, 1257.682 139.572, 1253.946 149.313 C 1251.003 156.986, 1244.615 163.399, 1237.693 165.630 C 1233.769 166.894, 1227.430 167.413, 1211.750 167.753 L 1191 168.202 1191 130.712 C 1191 95.292, 1191.106 93.091, 1192.911 90.861 C 1194.788 88.542, 1195.189 88.494, 1215.205 88.151 C 1246.768 87.610, 1260.490 91.078, 1270.401 102.101 C 1275.083 107.308, 1282 119.852, 1282 123.134 C 1282 124.160, 1282.675 125, 1283.500 125 C 1285.308 125, 1285.349 123.486, 1283.959 108.059 C 1283.386 101.701, 1282.675 93.688, 1282.379 90.250 L 1281.841 84 1212.920 84 C 1169.821 84, 1144 84.358, 1144 84.955 M 430.354 88.692 C 429.174 88.923, 427.374 90.034, 426.354 91.161 C 424.582 93.120, 424.500 96.645, 424.500 170.855 C 424.500 257.533, 424.117 252.858, 431.513 256.413 C 434.671 257.932, 438.429 258.425, 449.598 258.786 C 474.752 259.601, 487.891 255.338, 501.044 242.095 C 512.553 230.508, 518.347 217.865, 522.035 196.296 C 526.531 169.994, 523.373 142.552, 513.542 122.500 C 508.422 112.058, 502.100 104.462, 494.139 99.188 C 480.927 90.435, 470.717 87.964, 448.500 88.143 C 439.700 88.214, 431.534 88.461, 430.354 88.692 M 622.527 88.873 C 617.138 90.028, 617.031 90.908, 617.015 134.250 L 617 174 635.250 173.971 C 655.382 173.939, 662.829 172.634, 671.336 167.649 C 676.147 164.830, 681.585 158.793, 684.531 153 C 689.443 143.344, 690.535 126.182, 686.973 114.647 C 683.010 101.818, 672.782 92.799, 658.681 89.700 C 650.889 87.988, 628.998 87.487, 622.527 88.873 M 165 102.500 C 166.292 103.875, 167.574 105, 167.849 105 C 168.124 105, 167.292 103.875, 166 102.500 C 164.708 101.125, 163.426 100, 163.151 100 C 162.876 100, 163.708 101.125, 165 102.500 M 1539.120 119.636 C 1538.435 121.140, 1533.438 134.100, 1528.016 148.435 C 1522.594 162.771, 1516.356 179.113, 1514.154 184.750 L 1510.151 195 1539.075 195 C 1556.835 195, 1568 194.630, 1568 194.043 C 1568 193.516, 1564.124 182.378, 1559.387 169.293 C 1554.650 156.207, 1548.785 139.696, 1546.354 132.601 C 1540.770 116.310, 1540.696 116.177, 1539.120 119.636 M 186.405 185.250 L 184.500 187.500 186.750 185.595 C 188.864 183.805, 189.455 183, 188.655 183 C 188.465 183, 187.453 184.012, 186.405 185.250 M 247 259.987 L 247 325.973 213.250 326.237 L 179.500 326.500 179.500 337 L 179.500 347.500 224.750 347.760 L 270 348.020 270 271.010 L 270 194 258.500 194 L 247 194 247 259.987 M 124.405 220.250 L 122.500 222.500 124.750 220.595 C 126.864 218.805, 127.455 218, 126.655 218 C 126.465 218, 125.453 219.012, 124.405 220.250 M 193.500 233 C 194.495 234.100, 195.535 235, 195.810 235 C 196.085 235, 195.495 234.100, 194.500 233 C 193.505 231.900, 192.465 231, 192.190 231 C 191.915 231, 192.505 231.900, 193.500 233 M 92.946 250.750 L 89.500 254.500 93.250 251.054 C 95.313 249.158, 97 247.471, 97 247.304 C 97 246.540, 96.154 247.260, 92.946 250.750 M 81.250 282.749 C 92.112 282.910, 109.887 282.910, 120.750 282.749 C 131.612 282.587, 122.725 282.455, 101 282.455 C 79.275 282.455, 70.387 282.587, 81.250 282.749 M 152.768 282.725 C 154.565 282.947, 157.265 282.943, 158.768 282.715 C 160.271 282.486, 158.800 282.304, 155.500 282.310 C 152.200 282.315, 150.971 282.502, 152.768 282.725 M 172.302 282.746 C 177.693 282.926, 186.243 282.925, 191.302 282.744 C 196.361 282.563, 191.950 282.416, 181.500 282.417 C 171.050 282.418, 166.911 282.566, 172.302 282.746" fill="#0B1219" fill-rule="evenodd" />
  <path d="M 62 130.399 L 62 193 87.271 193 L 112.542 193 121.482 184.018 L 130.423 175.035 104.962 174.768 L 79.500 174.500 79.500 130.500 L 79.500 86.500 107.500 86.500 C 133.773 86.500, 135.943 86.639, 142.675 88.756 C 159.645 94.092, 174.148 108.212, 179.903 125 C 183.975 136.878, 183.759 157.764, 179.478 166.042 C 178.748 167.454, 158.879 187.255, 135.325 210.045 C 111.771 232.834, 85.525 258.336, 77 266.715 L 61.500 281.950 131.250 281.975 L 201 282 201 261.147 L 201 240.295 192.333 231.647 C 187.566 226.891, 183.525 223, 183.353 223 C 183.181 223, 182.919 232.337, 182.770 243.750 L 182.500 264.500 144.250 264.762 C 123.213 264.906, 106 264.653, 106 264.199 C 106 263.745, 110.392 259.128, 115.759 253.937 C 171.560 199.976, 193.370 178.195, 195.212 174.594 C 198.724 167.725, 200.083 161.062, 200.637 148 C 201.112 136.801, 200.902 134.473, 198.612 125.635 C 191.549 98.369, 171.536 78.497, 143.446 70.857 C 136.155 68.875, 132.468 68.659, 98.750 68.247 L 62 67.797 62 130.399" fill="#AD4556" fill-rule="evenodd" />
</svg>
